<?xml version="1.0" encoding="UTF-8"?>
<svg id="Layer_2" data-name="Layer 2" xmlns="http://www.w3.org/2000/svg" viewBox="0 0 100 100">
  <defs>
    <style>
      .cls-1 {
        fill: #9982bb;
      }

      .cls-2 {
        fill: #fff;
      }
    </style>
  </defs>
  <g id="new-logo">
    <g>
      <rect class="cls-1" width="100" height="100" rx="28" ry="28"/>
      <g>
        <path class="cls-2" d="M41.77,51.72h.01v-.02c2.04-3.42,4.35-6.66,6.91-9.71V14.17c-4.98,3.78-9.56,8.06-13.68,12.76h0c-3,3.41-5.73,7.05-8.17,10.89-.83,1.29-1.61,2.6-2.36,3.91-.76,1.3-1.51,2.63-2.22,3.99-2.1,4.04-3.89,8.23-5.35,12.53-2.01,5.92-3.42,12.02-4.21,18.22l24.09-13.88c1.36-3.75,3.02-7.38,4.96-10.86Z"/>
        <path class="cls-2" d="M58.21,51.73h0c1.94,3.48,3.6,7.11,4.97,10.86l24.09,13.88c-.79-6.2-2.2-12.3-4.21-18.22-1.45-4.31-3.24-8.5-5.35-12.53-.71-1.36-1.45-2.69-2.22-3.99-.75-1.32-1.53-2.63-2.36-3.91-2.44-3.83-5.17-7.47-8.17-10.89-4.12-4.71-8.71-8.99-13.7-12.77v27.85c2.57,3.04,4.88,6.29,6.93,9.71h0Z"/>
        <path class="cls-2" d="M50.07,65.86h-.02c-3.98-.06-7.96-.43-11.88-1.12l-24.09,13.99c5.78,2.41,11.78,4.24,17.92,5.45,4.46.87,8.97,1.4,13.51,1.59,1.53.07,3.06.08,4.57.07,1.52.02,3.04,0,4.57-.08,4.54-.21,9.06-.76,13.51-1.66,6.13-1.23,12.12-3.08,17.88-5.51l-24.1-13.88c-3.92.7-7.89,1.09-11.88,1.15ZM35.17,73.24c.39.54,2.32,1.32,3.16,2.5.44.59.6,1.33.44,2.04-.31,1.83-1.92,2.86-4.06,2.51-1.21-.15-2.32-.74-3.11-1.67l1.14-1.25c.58.59,1.32.99,2.13,1.17.95.15,1.64-.21,1.76-.92.04-.26-.01-.52-.16-.73-.5-.72-2.21-1.24-3.06-2.43-.42-.56-.59-1.28-.47-1.97.29-1.75,1.9-2.66,3.86-2.33,1.13.14,2.16.71,2.9,1.58l-1.16,1.17c-.51-.53-1.16-.9-1.88-1.07-.86-.15-1.54.17-1.64.79-.05.22,0,.45.15.63ZM47.01,81.32l-.6-2.1-3.55-.23-.85,2.01-2.11-.12,4.18-9.65,2.1.13,2.99,10.09-2.15-.13ZM53.84,81.49c-1.21.1-2.42-.27-3.38-1.02l.87-1.46c.69.46,1.5.71,2.34.72.96-.04,1.56-.55,1.53-1.27-.01-.26-.12-.5-.31-.68-.64-.6-2.42-.77-3.49-1.76-.53-.47-.83-1.14-.85-1.84-.07-1.77,1.32-2.98,3.31-3.06,1.13-.08,2.26.26,3.15.95l-.9,1.39c-.61-.42-1.33-.65-2.07-.67-.87.03-1.48.47-1.45,1.09,0,.23.09.44.26.59.49.45,2.54.82,3.59,1.8.55.48.86,1.18.85,1.91.08,1.87-1.29,3.2-3.47,3.29ZM68.31,74.65c.47,3.16-1.19,5.5-3.96,5.92-2.84.43-5.11-1.39-5.57-4.48-.45-3.01,1.18-5.33,4.01-5.76,2.9-.44,5.09,1.39,5.52,4.32Z"/>
        <path class="cls-2" d="M64.12,78.82c2.02-.31,2.34-2.31,2.1-3.88-.29-1.93-1.61-3.16-3.25-2.92-1.56.24-2.37,1.84-2.07,3.87.31,2.05,1.67,3.16,3.22,2.92Z"/>
        <polygon class="cls-2" points="43.48 77.41 45.97 77.57 44.98 73.53 43.48 77.41"/>
      </g>
    </g>
  </g>
</svg>